<mxfile host="app.diagrams.net" modified="2021-08-22T03:33:32.167Z" agent="5.0 (Windows NT 10.0; Win64; x64) AppleWebKit/537.36 (KHTML, like Gecko) Chrome/92.0.4515.159 Safari/537.36" etag="6CHmwIL4rLSDO12WffrJ" version="14.9.8" type="github">
  <diagram id="05ouo1HRuRG1w3K-HiDT" name="Page-1">
    <mxGraphModel dx="777" dy="591" grid="1" gridSize="10" guides="1" tooltips="1" connect="1" arrows="1" fold="1" page="1" pageScale="1" pageWidth="827" pageHeight="1169" math="0" shadow="0">
      <root>
        <mxCell id="0" />
        <mxCell id="1" parent="0" />
        <mxCell id="8qKj_ALPIqvGgr42W5pt-1" value="main.blade.php" style="rounded=0;whiteSpace=wrap;html=1;" vertex="1" parent="1">
          <mxGeometry x="330" y="90" width="120" height="60" as="geometry" />
        </mxCell>
      </root>
    </mxGraphModel>
  </diagram>
</mxfile>
